<svg id="图层_1" data-name="图层 1" xmlns="http://www.w3.org/2000/svg" xmlns:xlink="http://www.w3.org/1999/xlink" viewBox="0 0 500 500"><defs><style>.cls-1{opacity:0.34;fill:url(#未命名的渐变_463);}.cls-2{fill:url(#未命名的渐变_463-2);}.cls-3{fill:url(#未命名的渐变_463-3);}</style><linearGradient id="未命名的渐变_463" x1="284.55" y1="4.38" x2="247.2" y2="277.38" gradientUnits="userSpaceOnUse"><stop offset="0" stop-color="#d0ff7e"/><stop offset="1" stop-color="#00c385"/></linearGradient><linearGradient id="未命名的渐变_463-2" x1="283.64" y1="4.25" x2="216.39" y2="495.76" xlink:href="#未命名的渐变_463"/><linearGradient id="未命名的渐变_463-3" x1="257.84" y1="81.42" x2="231.33" y2="275.2" xlink:href="#未命名的渐变_463"/></defs><title>zarm logo</title><path class="cls-1" d="M301.21,242.12a37.69,37.69,0,0,1-18.83-32.63v-181A27.06,27.06,0,0,0,268.85,5h0A37.67,37.67,0,0,0,235.38,3,37.73,37.73,0,0,0,221,32.55V244.86c0,1,.05,2,.13,3a37.48,37.48,0,0,0,14.21,26.58,37.67,37.67,0,0,0,33.47-2.05L299,255s.08,0,.12-.08l12.16-7-.09-.05Z"/><path class="cls-2" d="M471.19,138.75a37.76,37.76,0,0,0-18.49-27.57l-7-4.06A37.66,37.66,0,0,0,423.76,112L393.5,129.5l-.22.13-15.62,9,0,0,13.66,7.88a37.77,37.77,0,0,1,18.87,32.66V320.75a37.67,37.67,0,0,1-18.87,32.66l-10,5.77-99,57.15-13.53,7.83a37.79,37.79,0,0,1-37.71,0L221,418.34,108.6,353.41a37.72,37.72,0,0,1-18.83-32.66V179.24a37.82,37.82,0,0,1,18.83-32.66l13.65-7.88,98.79-57,10.1-5.82,34.32-19A32.66,32.66,0,0,0,282.29,28.3h0A26.86,26.86,0,0,0,268.85,5,37.67,37.67,0,0,0,235.38,3,33.13,33.13,0,0,0,231.14,5L89.77,86.66,47.3,111.18a37.76,37.76,0,0,0-18.49,27.57,34.47,34.47,0,0,0-.38,5.09V356.15A37.66,37.66,0,0,0,47.3,388.8L231.14,495a37.76,37.76,0,0,0,37.71,0L315,468.33,452.7,388.8a35.3,35.3,0,0,0,4.49-3,37.67,37.67,0,0,0,14.38-29.62V143.84A34.47,34.47,0,0,0,471.19,138.75Z"/><path class="cls-3" d="M452.7,111.18l-7-4.06A37.66,37.66,0,0,0,423.76,112L393.5,129.5l-.22.13c-.64.43-1.28.81-1.92,1.2L377.7,138.7l-95.32,55.05-13.53,7.83a13.25,13.25,0,0,1-1.71.9l-.51.26a37.79,37.79,0,0,1-35.49-1.16L221,195.76,122.25,138.7l-13.65-7.87A37.72,37.72,0,0,1,89.77,98.17V86.66L47.3,111.18a37.76,37.76,0,0,0-18.49,27.57A37.52,37.52,0,0,0,47.3,166.23l42.47,24.52L221,266.56l10.1,5.82a31.79,31.79,0,0,0,4.24,2.05,37.67,37.67,0,0,0,33.47-2.05L299,255s.08,0,.12-.08l12.16-7,99-57.15L425.39,182a6.42,6.42,0,0,1,.6-.34l26.71-15.45a37.52,37.52,0,0,0,18.49-27.48A37.76,37.76,0,0,0,452.7,111.18Z"/></svg>